<svg width="83" height="85" viewBox="0 0 83 85" fill="none" xmlns="http://www.w3.org/2000/svg">
<path d="M13.112 39.783L-2.50265e-05 34.419C0.397308 29.2537 1.68864 24.585 3.87398 20.413C6.15864 16.1417 9.13864 12.516 12.814 9.53601C16.5886 6.45668 20.9593 4.12234 25.926 2.533C30.992 0.844341 36.5546 9.17912e-06 42.614 9.17912e-06C48.7726 9.17912e-06 54.2856 0.794674 59.153 2.38401C64.1196 3.97334 68.3413 6.25801 71.818 9.23801C75.2946 12.218 77.927 15.8437 79.715 20.115C81.6023 24.287 82.546 28.9557 82.546 34.121V84.036H63.474V36.654C63.474 29.8993 61.537 24.436 57.663 20.264C53.8883 15.9927 48.3256 13.857 40.975 13.857C35.313 13.857 30.396 15.1483 26.224 17.731C22.052 20.2143 19.1713 23.393 17.582 27.267L23.84 29.651C27.0186 30.7437 29.204 32.1343 30.396 33.823C31.588 35.4123 32.184 37.7963 32.184 40.975V84.036H13.112V39.783Z" fill="#F5F5F5"/>
</svg>
