<svg width="83" height="139" viewBox="0 0 83 139" fill="none" xmlns="http://www.w3.org/2000/svg">
<path d="M13.112 94.317L5.49108e-06 88.953C0.397339 83.7877 1.68867 79.119 3.87401 74.947C6.15867 70.6757 9.13867 67.05 12.814 64.07C16.5887 60.9907 20.9593 58.6563 25.926 57.067C30.992 55.3783 36.5547 54.534 42.614 54.534C48.7727 54.534 54.2857 55.3287 59.153 56.918C64.1197 58.5073 68.3413 60.792 71.818 63.772C75.2947 66.752 77.927 70.3777 79.715 74.649C81.6023 78.821 82.546 83.4897 82.546 88.655V138.57H63.474V91.188C63.474 84.4333 61.537 78.97 57.663 74.798C53.8883 70.5267 48.3257 68.391 40.975 68.391C35.313 68.391 30.396 69.6823 26.224 72.265C22.052 74.7483 19.1713 77.927 17.582 81.801L23.84 84.185C27.0187 85.2777 29.204 86.6683 30.396 88.357C31.588 89.9463 32.184 92.3303 32.184 95.509V138.57H13.112V94.317ZM7.12407 36.505C7.12407 31.9357 7.91873 27.8133 9.50806 24.138C10.9981 20.4627 13.1834 17.3337 16.0641 14.751C18.8454 12.069 22.2724 10.0327 26.3451 8.642C30.3184 7.152 34.7387 6.407 39.6061 6.407C45.8641 6.407 51.2777 7.599 55.8471 9.983C60.4164 12.367 63.7937 15.645 65.9791 19.817H66.4261V-2.6226e-06H82.5181V41.72H7.12407V36.505ZM44.5231 19.221C38.5631 19.221 33.5467 20.3633 29.4741 22.648C25.4014 24.8333 22.9677 27.7637 22.1731 31.439H67.0221C66.2274 27.7637 63.7937 24.8333 59.7211 22.648C55.5491 20.3633 50.4831 19.221 44.5231 19.221Z" fill="#F5F5F5"/>
</svg>
