<svg width="87" height="141" viewBox="0 0 87 141" fill="none" xmlns="http://www.w3.org/2000/svg">
<path d="M52.001 140.358C47.1336 140.358 42.6636 139.762 38.591 138.57C34.5183 137.279 30.992 135.391 28.012 132.908C25.032 130.425 22.6976 127.395 21.009 123.819C19.4196 120.144 18.625 115.972 18.625 111.303C18.625 108.621 18.9726 106.237 19.668 104.151C20.3633 102.065 21.2573 100.128 22.35 98.34C23.4426 96.552 24.6843 94.8633 26.075 93.274C27.4656 91.6847 28.906 90.0953 30.396 88.506C32.184 86.5193 33.972 84.5823 35.76 82.695C37.548 80.7083 39.038 78.4237 40.23 75.841L39.187 75.245C36.9023 78.9203 33.8726 81.9003 30.098 84.185C26.4226 86.4697 22.3003 87.612 17.731 87.612C12.5656 87.612 8.29431 86.122 4.91697 83.142C1.63897 80.0627 -2.8085e-05 75.9403 -2.8085e-05 70.775C-2.8085e-05 65.8083 1.58931 61.8847 4.76797 59.004C7.94664 56.024 11.9696 54.534 16.837 54.534C21.605 54.534 25.3796 55.9247 28.161 58.706C31.0416 61.4873 32.482 64.964 32.482 69.136C32.482 71.3213 31.8363 73.457 30.545 75.543L30.694 75.692C32.9786 74.5993 34.866 73.0597 36.356 71.073C37.9453 68.987 38.74 66.4043 38.74 63.325V56.322H53.64V67.646C53.64 72.6127 52.746 76.8343 50.958 80.311C49.2693 83.7877 47.382 87.0657 45.296 90.145C43.3093 93.0257 41.571 95.9063 40.081 98.787C38.6903 101.568 37.995 104.747 37.995 108.323V111.899C37.995 116.071 39.2863 119.448 41.869 122.031C44.4516 124.614 47.829 125.905 52.001 125.905C56.471 125.905 59.9476 124.713 62.431 122.329C65.0136 119.945 66.305 116.22 66.305 111.154V99.383C66.305 94.2177 65.709 90.4927 64.517 88.208C63.4243 85.9233 61.4376 84.781 58.557 84.781H57.365V72.116H58.706C61.5866 72.116 63.8713 71.371 65.56 69.881C67.2486 68.391 68.093 65.7587 68.093 61.984V52.895H86.718V59.451C86.718 63.7223 85.377 67.2487 82.695 70.03C80.1123 72.712 76.1886 74.4007 70.924 75.096V75.99C73.8046 76.7847 76.2383 78.076 78.225 79.864C80.2116 81.652 81.801 83.8373 82.993 86.42C84.185 88.9033 85.0293 91.7343 85.526 94.913C86.0226 98.0917 86.271 101.519 86.271 105.194C86.271 111.452 85.4266 116.816 83.738 121.286C82.0493 125.756 79.715 129.431 76.735 132.312C73.755 135.093 70.1293 137.13 65.858 138.421C61.686 139.712 57.067 140.358 52.001 140.358ZM16.986 77.927C18.9726 77.927 20.5123 77.331 21.605 76.139C22.6976 74.8477 23.244 73.1093 23.244 70.924C23.244 68.7387 22.6976 67.05 21.605 65.858C20.5123 64.5667 18.9726 63.921 16.986 63.921C14.9993 63.921 13.4596 64.5667 12.367 65.858C11.2743 67.05 10.728 68.7387 10.728 70.924C10.728 73.1093 11.2743 74.8477 12.367 76.139C13.4596 77.331 14.9993 77.927 16.986 77.927ZM9.25892 36.505C9.25892 31.9357 10.0536 27.8133 11.6429 24.138C13.1329 20.4627 15.3183 17.3337 18.1989 14.751C20.9803 12.069 24.4073 10.0327 28.4799 8.642C32.4533 7.152 36.8736 6.407 41.7409 6.407C47.9989 6.407 53.4126 7.599 57.9819 9.983C62.5513 12.367 65.9286 15.645 68.1139 19.817H68.5609V-2.6226e-06H84.6529V41.72H9.25892V36.505ZM46.6579 19.221C40.6979 19.221 35.6816 20.3633 31.6089 22.648C27.5363 24.8333 25.1026 27.7637 24.3079 31.439H69.1569C68.3623 27.7637 65.9286 24.8333 61.8559 22.648C57.6839 20.3633 52.6179 19.221 46.6579 19.221Z" fill="#F5F5F5"/>
</svg>
