<svg width="82" height="86" viewBox="0 0 82 86" fill="none" xmlns="http://www.w3.org/2000/svg">
<path d="M18.476 85.824C13.0127 85.824 8.54268 84.2843 5.06601 81.205C1.68868 78.1257 9.59262e-06 73.904 9.59262e-06 68.54C9.59262e-06 63.176 1.68868 58.9543 5.06601 55.875C8.54268 52.7957 13.0127 51.256 18.476 51.256H19.37C19.072 50.4613 18.8733 49.6667 18.774 48.872C18.6747 47.978 18.625 46.9847 18.625 45.892V33.674C13.3603 33.5747 9.03934 32.035 5.66201 29.055C2.38401 26.075 0.745009 22.0023 0.745009 16.837C0.745009 11.5723 2.48334 7.45001 5.96001 4.47C9.43668 1.49001 13.857 9.17912e-06 19.221 9.17912e-06C24.585 9.17912e-06 29.0053 1.49001 32.482 4.47C35.9587 7.45001 37.697 11.5723 37.697 16.837V57.365L61.835 68.987H62.58V1.788H81.652V84.036H63.623L36.803 70.924C36.3063 75.5927 34.3693 79.268 30.992 81.95C27.714 84.5327 23.542 85.824 18.476 85.824ZM18.476 76.437C20.86 76.437 22.6977 75.841 23.989 74.649C25.3797 73.3577 26.075 71.7187 26.075 69.732V67.348C26.075 65.3613 25.3797 63.772 23.989 62.58C22.6977 61.2887 20.86 60.643 18.476 60.643C16.092 60.643 14.2047 61.2887 12.814 62.58C11.5227 63.772 10.877 65.3613 10.877 67.348V69.732C10.877 71.7187 11.5227 73.3577 12.814 74.649C14.2047 75.841 16.092 76.437 18.476 76.437ZM18.774 24.287C20.86 24.287 22.5487 23.6413 23.84 22.35C25.1313 20.9593 25.777 19.1217 25.777 16.837C25.777 14.5523 25.1313 12.7643 23.84 11.473C22.5487 10.0823 20.86 9.387 18.774 9.387C16.688 9.387 14.9993 10.0823 13.708 11.473C12.4167 12.7643 11.771 14.5523 11.771 16.837C11.771 19.1217 12.4167 20.9593 13.708 22.35C14.9993 23.6413 16.688 24.287 18.774 24.287Z" fill="#F5F5F5"/>
</svg>
