<svg width="69" height="86" viewBox="0 0 69 86" fill="none" xmlns="http://www.w3.org/2000/svg">
<path d="M43.508 85.824C38.0447 85.824 33.525 84.334 29.949 81.354C26.4724 78.374 24.734 74.202 24.734 68.838C24.734 63.5733 26.4724 59.451 29.949 56.471C33.4257 53.491 37.846 51.9513 43.21 51.852V49.617C43.21 47.4317 42.6637 45.8423 41.571 44.849C40.5777 43.7563 38.6407 43.1107 35.76 42.912L2.78056e-05 40.081V31.886C2.78056e-05 26.9193 0.844361 22.4493 2.53303 18.476C4.22169 14.5027 6.60569 11.175 9.68503 8.49301C12.8637 5.71167 16.6384 3.62567 21.009 2.23501C25.3797 0.745008 30.247 9.17912e-06 35.611 9.17912e-06C43.4584 9.17912e-06 49.9647 1.14234 55.13 3.42701C60.3947 5.61234 64.815 8.74134 68.391 12.814L59.451 25.032C56.8684 21.6547 53.64 18.9727 49.766 16.986C45.892 14.9 41.5214 13.857 36.654 13.857C30.694 13.857 26.1247 15.0987 22.946 17.582C19.7674 20.0653 18.1284 23.6413 18.029 28.31L39.336 29.8C42.912 30.098 46.1404 30.5947 49.021 31.29C51.9017 31.886 54.2857 32.929 56.173 34.419C58.1597 35.909 59.6497 37.9453 60.643 40.528C61.7357 43.0113 62.282 46.2397 62.282 50.213V68.838C62.282 74.202 60.494 78.374 56.918 81.354C53.4414 84.334 48.9714 85.824 43.508 85.824ZM42.763 61.09C40.5777 61.09 38.7897 61.7853 37.399 63.176C36.1077 64.5667 35.462 66.454 35.462 68.838C35.462 71.222 36.1077 73.1093 37.399 74.5C38.7897 75.8907 40.5777 76.586 42.763 76.586C44.9484 76.586 46.6867 75.8907 47.978 74.5C49.3687 73.1093 50.064 71.222 50.064 68.838C50.064 66.454 49.3687 64.5667 47.978 63.176C46.6867 61.7853 44.9484 61.09 42.763 61.09Z" fill="#F5F5F5"/>
</svg>
