<svg width="100" height="142" viewBox="0 0 100 142" fill="none" xmlns="http://www.w3.org/2000/svg">
<path d="M56.769 102.214H34.866C30.098 102.214 26.4227 103.158 23.84 105.045C21.3567 106.833 19.8667 109.316 19.37 112.495C21.5553 111.303 24.138 110.707 27.118 110.707C31.4887 110.707 35.164 112.048 38.144 114.73C41.124 117.412 42.614 121.087 42.614 125.756C42.614 130.524 41.0743 134.348 37.995 137.229C34.9157 140.01 30.843 141.401 25.777 141.401C19.1217 141.401 13.8073 139.414 9.83401 135.441C5.96001 131.468 4.02301 125.458 4.02301 117.412C4.02301 108.571 6.55601 101.966 11.622 97.595C16.688 93.125 23.542 90.89 32.184 90.89H56.769V88.208C56.769 82.3473 55.1797 77.8773 52.001 74.798C48.9217 71.7187 43.955 70.179 37.101 70.179C33.9223 70.179 31.0417 70.5763 28.459 71.371C25.9757 72.1657 23.691 73.2087 21.605 74.5C19.6183 75.7913 17.8303 77.331 16.241 79.119C14.751 80.8077 13.41 82.546 12.218 84.334L6.63847e-06 73.755C1.78801 71.073 3.82434 68.6393 6.10901 66.454C8.49301 64.1693 11.2247 62.2323 14.304 60.643C17.4827 59.0537 21.0587 57.812 25.032 56.918C29.1047 56.024 33.674 55.577 38.74 55.577C45.6933 55.577 51.852 56.5703 57.216 58.557V47.084H76.288V53.789C76.288 59.8483 74.1027 64.4177 69.732 67.497C73.8047 72.7617 75.841 79.4667 75.841 87.612V139.613H56.769V102.214ZM26.075 133.057C28.0617 133.057 29.651 132.461 30.843 131.269C32.035 129.978 32.631 128.239 32.631 126.054C32.631 123.869 32.035 122.18 30.843 120.988C29.651 119.697 28.0617 119.051 26.075 119.051C24.0883 119.051 22.499 119.697 21.307 120.988C20.115 122.18 19.519 123.869 19.519 126.054C19.519 128.239 20.115 129.978 21.307 131.269C22.499 132.461 24.0883 133.057 26.075 133.057ZM57.2544 43.955C52.0891 43.955 47.8178 42.465 44.4404 39.485C41.0631 36.505 39.3744 32.5317 39.3744 27.565C39.3744 21.5057 41.3114 17.0357 45.1854 14.155C49.0594 11.2743 54.4234 9.834 61.2774 9.834H80.7964L83.1804 1.19209e-06L99.5704 3.129L97.7824 10.132C97.3851 11.7213 96.8884 13.2113 96.2924 14.602C95.6964 15.9927 94.9018 17.1847 93.9084 18.178C92.8158 19.1713 91.5244 19.966 90.0344 20.562C88.4451 21.0587 86.4584 21.307 84.0744 21.307H75.1344C74.3398 21.307 73.5948 21.307 72.8994 21.307C72.2041 21.307 71.5584 21.2573 70.9624 21.158L70.8134 21.307C73.2968 23.393 74.5384 26.075 74.5384 29.353C74.5384 33.525 72.9988 37.0017 69.9194 39.783C66.8401 42.5643 62.6184 43.955 57.2544 43.955ZM57.4034 34.568C61.7741 34.568 63.9594 32.2337 63.9594 27.565C63.9594 22.8963 61.7741 20.562 57.4034 20.562C53.0328 20.562 50.8474 22.8963 50.8474 27.565C50.8474 32.2337 53.0328 34.568 57.4034 34.568Z" fill="#F5F5F5"/>
</svg>
