<svg width="95" height="85" viewBox="0 0 95 85" fill="none" xmlns="http://www.w3.org/2000/svg">
<path d="M17.88 84.036V33.674C12.6153 33.5747 8.29432 32.035 4.91699 29.055C1.63899 26.075 -1.01496e-05 22.0023 -1.01496e-05 16.837C-1.01496e-05 11.5723 1.73832 7.45001 5.21499 4.47C8.69166 1.49001 13.112 9.17912e-06 18.476 9.17912e-06C23.84 9.17912e-06 28.2603 1.49001 31.737 4.47C35.2137 7.45001 36.952 11.5723 36.952 16.837V39.187L60.494 27.714C58.5073 24.8333 57.514 21.4063 57.514 17.433C57.514 12.069 59.2027 7.84734 62.58 4.76801C66.0567 1.58934 70.5267 9.17912e-06 75.99 9.17912e-06C81.4533 9.17912e-06 85.8737 1.58934 89.251 4.76801C92.7277 7.84734 94.466 12.069 94.466 17.433C94.466 21.4063 93.4727 24.7837 91.486 27.565C89.5987 30.3463 87.016 32.333 83.738 33.525C85.7247 35.2137 86.718 37.697 86.718 40.975V84.036H67.646V38.591H66.603L36.952 53.044V84.036H17.88ZM75.99 25.479C78.374 25.479 80.2117 24.883 81.503 23.691C82.8937 22.3997 83.589 20.7607 83.589 18.774V16.092C83.589 14.1053 82.8937 12.516 81.503 11.324C80.2117 10.0327 78.374 9.387 75.99 9.387C73.606 9.387 71.7187 10.0327 70.328 11.324C69.0367 12.516 68.391 14.1053 68.391 16.092V18.774C68.391 20.7607 69.0367 22.3997 70.328 23.691C71.7187 24.883 73.606 25.479 75.99 25.479ZM18.029 24.287C20.115 24.287 21.8037 23.6413 23.095 22.35C24.3863 20.9593 25.032 19.1217 25.032 16.837C25.032 14.5523 24.3863 12.7643 23.095 11.473C21.8037 10.0823 20.115 9.387 18.029 9.387C15.943 9.387 14.2543 10.0823 12.963 11.473C11.6717 12.7643 11.026 14.5523 11.026 16.837C11.026 19.1217 11.6717 20.9593 12.963 22.35C14.2543 23.6413 15.943 24.287 18.029 24.287Z" fill="#F5F5F5"/>
</svg>
