<svg width="100" height="114" viewBox="0 0 100 114" fill="none" xmlns="http://www.w3.org/2000/svg">
<path d="M17.88 63.623C12.6153 63.5236 8.29432 61.984 4.91699 59.004C1.63899 56.024 -1.01496e-05 51.9513 -1.01496e-05 46.786C-1.01496e-05 41.5213 1.73832 37.399 5.21499 34.419C8.69166 31.439 13.112 29.949 18.476 29.949C23.84 29.949 28.2603 31.439 31.737 34.419C35.2137 37.399 36.952 41.5213 36.952 46.786V74.947L36.654 97.595H37.399L53.491 57.365H62.729L78.821 97.595H79.566L79.268 74.947V45.296C79.268 40.23 78.523 36.7036 77.033 34.717C75.543 32.7303 72.9107 31.737 69.136 31.737H61.388V19.072H69.136C72.5133 19.072 75.3443 18.3766 77.629 16.986C79.9137 15.496 81.056 12.8636 81.056 9.08898V-2.13981e-05H99.681V6.55598C99.681 10.728 98.2903 14.2046 95.509 16.986C92.827 19.668 88.953 21.3566 83.887 22.052V23.095C86.867 23.691 89.3007 24.6843 91.188 26.075C93.0753 27.3663 94.5157 29.055 95.509 31.141C96.6017 33.227 97.3467 35.611 97.744 38.293C98.1413 40.975 98.34 43.8556 98.34 46.935V104.598C98.34 107.379 97.6447 109.664 96.254 111.452C94.8633 113.141 92.6283 113.985 89.549 113.985H74.053L58.408 75.096H57.812L42.167 113.985H17.88V63.623ZM18.029 54.236C20.115 54.236 21.8037 53.5903 23.095 52.299C24.3863 50.9083 25.032 49.0706 25.032 46.786C25.032 44.5013 24.3863 42.7133 23.095 41.422C21.8037 40.0313 20.115 39.336 18.029 39.336C15.943 39.336 14.2543 40.0313 12.963 41.422C11.6717 42.7133 11.026 44.5013 11.026 46.786C11.026 49.0706 11.6717 50.9083 12.963 52.299C14.2543 53.5903 15.943 54.236 18.029 54.236Z" fill="#F5F5F5"/>
</svg>
