<svg width="63" height="85" viewBox="0 0 63 85" fill="none" xmlns="http://www.w3.org/2000/svg">
<path d="M43.657 84.036V28.757C43.657 24.287 42.465 20.8103 40.081 18.327C37.7963 15.8437 34.1706 14.602 29.204 14.602C24.734 14.602 21.1083 15.5953 18.327 17.582C15.5456 19.5687 13.2113 22.0023 11.324 24.883L-2.48868e-05 15.049C2.88064 10.4797 6.70498 6.85401 11.473 4.17201C16.3403 1.39068 22.797 9.17912e-06 30.843 9.17912e-06C41.273 9.17912e-06 49.17 2.43367 54.534 7.301C59.9973 12.069 62.729 18.9727 62.729 28.012V84.036H43.657Z" fill="#F5F5F5"/>
</svg>
