<svg width="37" height="85" viewBox="0 0 37 85" fill="none" xmlns="http://www.w3.org/2000/svg">
<path d="M18.476 84.036C13.112 84.036 8.6917 82.546 5.21504 79.566C1.73837 76.586 3.55914e-05 72.4637 3.55914e-05 67.199V-2.09808e-05H19.072V50.362C24.3367 50.5607 28.608 52.15 31.886 55.13C35.2634 58.11 36.952 62.133 36.952 67.199C36.952 72.4637 35.2137 76.586 31.737 79.566C28.2604 82.546 23.84 84.036 18.476 84.036ZM18.923 74.649C21.009 74.649 22.6977 74.0033 23.989 72.712C25.2804 71.3213 25.926 69.4837 25.926 67.199C25.926 64.9143 25.2804 63.1263 23.989 61.835C22.6977 60.4443 21.009 59.749 18.923 59.749C16.837 59.749 15.1484 60.4443 13.857 61.835C12.5657 63.1263 11.92 64.9143 11.92 67.199C11.92 69.4837 12.5657 71.3213 13.857 72.712C15.1484 74.0033 16.837 74.649 18.923 74.649Z" fill="#F5F5F5"/>
</svg>
